<svg width="99" height="50" viewBox="0 0 99 50" fill="none" xmlns="http://www.w3.org/2000/svg">
<path fill-rule="evenodd" clip-rule="evenodd" d="M50.9832 1.49113C69.6476 -3.49674 85.8413 4.78216 85.5869 15.1638C81.4353 10.9718 78.3475 9.41455 71.68 7.84708C79.084 10.8534 81.0516 12.8487 83.9508 16.4941C76.6263 15.7766 70.0633 11.4684 64.2491 7.65166C59.2837 4.39217 54.8644 1.49113 50.9832 1.49113ZM80.3366 30.1576C80.6895 28.7546 81.0619 27.4734 81.4731 26.2821L81.4957 26.2872L81.4902 26.2615L81.4865 26.2434C83.4609 20.5435 86.33 16.9052 92.2131 11.825C84.2518 17.007 80.7614 20.7259 77.9815 27.3594C76.4736 27.0729 74.974 26.9297 73.4825 26.9297C71.0611 26.9297 69.054 27.7969 67.4616 29.5312C65.8909 31.2458 65.1056 33.2462 65.1056 35.5324C65.1056 37.2076 65.5528 38.6266 66.4472 39.7894C67.3417 40.9523 68.6069 41.5336 70.243 41.5336C70.8974 41.5336 71.5192 41.3957 72.1082 41.1197C73.2644 40.568 74.6168 39.07 76.1657 36.6262C76.1875 37.1584 76.2421 38.0649 76.3293 39.346C76.4384 40.6271 76.4929 41.6026 76.4929 42.2727C76.4929 43.6326 76.1003 44.746 75.3149 45.6132C74.5296 46.4805 73.4388 46.914 72.0427 46.914C71.2356 46.914 70.5375 46.6578 69.9485 46.1454C69.3595 45.6329 69.065 45.022 69.065 44.3125C69.065 44.1155 69.0977 43.8887 69.1632 43.6325C68.9014 43.5931 68.6833 43.5734 68.5087 43.5734C67.7016 43.5734 67.0035 43.8198 66.4145 44.3125C65.8255 44.8052 65.531 45.4063 65.531 46.1158C65.531 47.2588 66.0873 48.0965 67.1998 48.6286C68.3342 49.1804 69.6867 49.4564 71.2574 49.4564C73.9188 49.4564 76.1003 48.6582 77.8018 47.0618C79.5034 45.4851 80.3541 43.4847 80.3541 41.0606C80.3541 40.3708 80.2777 39.3164 80.1251 37.8974C79.9724 36.4588 79.896 35.2565 79.896 34.2908C79.896 32.9308 80.0429 31.5531 80.3366 30.1576ZM24.5743 36.4489L24.9016 30.1225C24.9016 27.994 23.8 26.9297 21.5966 26.9297C20.3314 26.9297 19.0552 27.4519 17.7681 28.4965C16.5029 29.5411 15.4668 30.7532 14.6595 32.1327C14.725 31.4823 14.7577 30.8911 14.7577 30.359C14.7577 28.2305 13.6561 27.1662 11.4527 27.1662C10.2093 27.1662 8.96587 27.6491 7.72243 28.6148C6.47899 29.5608 5.4538 30.6842 4.64655 31.9849C4.79936 30.6054 4.8756 29.7382 4.8756 29.3834C4.8756 28.6936 4.62479 28.1418 4.12299 27.7279C3.64312 27.314 3.01044 27.1071 2.22511 27.1071C1.43977 27.1071 0.698127 27.2253 0 27.4618C0.501794 29.3933 0.752609 31.1079 0.752609 32.6057C0.752609 34.0839 0.654442 35.5816 0.458109 37.0992C0.261776 38.597 0.16361 39.6416 0.16361 40.2329C0.16361 40.8045 0.392665 41.2576 0.850775 41.5927C1.33081 41.908 1.94157 42.0657 2.68322 42.0657C3.44679 42.0657 4.17764 41.9475 4.8756 41.711C4.54838 40.3511 4.33028 38.8238 4.22116 37.1288C4.26484 36.4784 4.5811 35.6112 5.1701 34.5273C5.78102 33.4236 6.52267 32.4184 7.3952 31.5119C8.2679 30.6054 9.04227 30.152 9.71848 30.152C10.7001 30.152 11.191 30.6447 11.191 31.6302C11.191 32.1032 11.071 33.266 10.831 35.1185C10.5912 36.9711 10.4711 38.2916 10.4711 39.0799C10.4711 40.9523 11.3983 41.8884 13.2525 41.8884C13.8197 41.8884 14.5178 41.7701 15.3467 41.5336C14.8451 39.9964 14.5396 38.4492 14.4305 36.8923C14.4305 35.8675 15.1068 34.4485 16.4592 32.6353C17.8336 30.8221 19.0116 29.9155 19.9932 29.9155C20.8877 29.9155 21.3348 30.4082 21.3348 31.3937C21.3348 31.9061 21.2149 33.1674 20.9749 35.1777C20.735 37.1683 20.6149 38.5873 20.6149 39.4347C20.6149 41.307 21.5421 42.2431 23.3963 42.2431C24.1817 42.2431 24.8798 42.1249 25.4906 41.8884C24.8798 40.1737 24.5743 38.3605 24.5743 36.4489ZM42.8919 34.9707C42.8919 32.6845 43.1864 30.4082 43.7754 28.1418C41.1576 27.3337 38.6053 26.9297 36.1184 26.9297C33.6534 26.9297 31.6464 27.8856 30.0975 29.7973C28.5488 31.6893 27.7742 33.8966 27.7742 36.4193C27.7742 38.0748 28.2323 39.4642 29.1486 40.5876C30.0648 41.6913 31.3519 42.2431 33.0098 42.2431C33.7079 42.2431 34.3841 42.0657 35.0385 41.711C36.4783 40.9227 37.9727 39.0307 39.5215 36.035C39.2379 37.4934 39.0961 38.6464 39.0961 39.4938C39.0961 40.3215 39.2597 40.962 39.5869 41.4154C39.9141 41.8489 40.4923 42.0657 41.3212 42.0657C42.1502 42.0657 42.9573 41.9475 43.7426 41.711C43.1756 39.4839 42.8919 37.2371 42.8919 34.9707ZM36.5438 29.4425C37.351 29.4425 38.3327 29.6002 39.4888 29.9155C38.7908 32.32 37.8419 34.5372 36.6419 36.5671C35.4422 38.597 34.4605 39.612 33.6969 39.612C33.0425 39.612 32.5517 39.149 32.2244 38.2226C31.9191 37.2963 31.7663 36.3798 31.7663 35.4733C31.7663 33.7587 32.1372 32.0736 32.8789 30.4181C33.6861 29.7677 34.9077 29.4425 36.5438 29.4425ZM61.5738 36.6262L61.901 30.1225C61.901 27.994 60.7992 26.9297 58.596 26.9297C57.2652 26.9297 55.9346 27.4618 54.6039 28.5261C53.2731 29.5707 52.1933 30.7925 51.3644 32.1918C51.5388 30.8516 51.6262 29.8761 51.6262 29.2652C51.6262 28.6542 51.3752 28.1418 50.8736 27.7279C50.3936 27.314 49.7611 27.1071 48.9757 27.1071C48.1904 27.1071 47.4486 27.2253 46.7506 27.4618C47.2522 29.3933 47.5032 31.1079 47.5032 32.6057C47.5032 34.0839 47.4051 35.5816 47.2087 37.0992C47.0124 38.597 46.9142 39.6416 46.9142 40.2329C46.9142 40.8045 47.1433 41.2576 47.6014 41.5927C48.0813 41.908 48.692 42.0657 49.4338 42.0657C50.1972 42.0657 50.9281 41.9475 51.6262 41.711C51.2771 40.3116 51.059 38.8434 50.9718 37.3062C51.0807 36.5572 51.4516 35.6112 52.0843 34.4682C52.7388 33.3053 53.5131 32.2609 54.4076 31.3345C55.3238 30.3885 56.1419 29.9155 56.8618 29.9155C57.8434 29.9155 58.3343 30.4082 58.3343 31.3937C58.3343 31.9061 58.2142 33.1674 57.9743 35.1777C57.7343 37.1683 57.6144 38.5873 57.6144 39.4347C57.6144 41.307 58.5414 42.2431 60.3958 42.2431C61.1811 42.2431 61.879 42.1249 62.49 41.8884C61.879 40.1737 61.5738 38.4196 61.5738 36.6262ZM73.5152 29.4425C74.6497 29.4425 75.795 29.6002 76.951 29.9155C76.1875 32.0835 75.184 34.1233 73.9406 36.035C72.6972 37.9466 71.7047 38.9025 70.9629 38.9025C70.3084 38.9025 69.8394 38.469 69.5558 37.6018C69.2723 36.7149 69.1304 35.8084 69.1304 34.882C69.1304 33.2857 69.5231 31.778 70.3084 30.359C71.3119 29.7481 72.3809 29.4425 73.5152 29.4425ZM84.5347 40.5285C85.669 41.7898 87.436 42.4205 89.8357 42.4205C92.2352 42.4205 94.2205 41.6223 95.7911 40.0259C97.3618 38.4099 98.1471 36.4489 98.1471 34.143C98.1471 29.2159 95.7257 26.7523 90.8828 26.7523C88.5268 26.7523 86.5962 27.59 85.091 29.2652C83.5858 30.9403 82.8332 32.921 82.8332 35.2072C82.8332 37.4736 83.4002 39.2474 84.5347 40.5285ZM86.8907 33.4335C86.8907 32.2904 87.087 31.1473 87.4797 30.0042C88.4177 29.5116 89.5193 29.2652 90.7846 29.2652C92.9878 29.2652 94.0896 31.3641 94.0896 35.562C94.0896 37.0401 93.8496 38.1339 93.3697 38.8434C92.9116 39.5529 91.9407 39.9077 90.4574 39.9077C88.9957 39.9077 88.0141 39.2672 87.5124 37.9861C87.2724 37.3554 87.1088 36.7248 87.0216 36.0941C86.9342 35.4634 86.8907 34.5765 86.8907 33.4335ZM83.0827 24.692C87.0821 27.6921 94.7299 24.8181 98.0213 17.4419C96.9295 18.6847 94.5798 19.2875 91.9388 19.9651C88.849 20.7576 85.3605 21.6525 83.0208 23.7942C85.2656 23.8911 86.6011 23.8224 89.8617 22.2979C87.3725 23.9912 85.8937 24.5416 83.0827 24.692Z" fill="white"/>
</svg>
