<svg width="26" height="16" viewBox="0 0 26 16" fill="none" xmlns="http://www.w3.org/2000/svg">
<path d="M24.9016 3.19275L24.5743 9.51914C24.5743 11.4308 24.8798 13.244 25.4906 14.9586C24.8798 15.1951 24.1817 15.3134 23.3963 15.3134C21.5421 15.3134 20.6149 14.3773 20.6149 12.505C20.6149 11.6575 20.735 10.2385 20.9749 8.24795C21.2149 6.2377 21.3348 4.97641 21.3348 4.46394C21.3348 3.47848 20.8877 2.98582 19.9932 2.98582C19.0116 2.98582 17.8336 3.89235 16.4592 5.70557C15.1068 7.51879 14.4305 8.93779 14.4305 9.96258C14.5396 11.5195 14.8451 13.0666 15.3467 14.6039C14.5178 14.8404 13.8197 14.9586 13.2525 14.9586C11.3983 14.9586 10.4711 14.0226 10.4711 12.1502C10.4711 11.3619 10.5912 10.0414 10.831 8.18883C11.071 6.33629 11.191 5.17344 11.191 4.70044C11.191 3.71498 10.7001 3.22232 9.71848 3.22232C9.04227 3.22232 8.2679 3.67566 7.3952 4.58219C6.52267 5.48873 5.78102 6.49386 5.1701 7.59758C4.5811 8.68149 4.26484 9.54871 4.22116 10.1991C4.33028 11.8941 4.54838 13.4214 4.8756 14.7813C4.17764 15.0178 3.44679 15.136 2.68322 15.136C1.94157 15.136 1.33081 14.9783 0.850775 14.663C0.392665 14.3279 0.16361 13.8747 0.16361 13.3031C0.16361 12.7119 0.261776 11.6673 0.458109 10.1695C0.654442 8.65193 0.752609 7.15414 0.752609 5.67601C0.752609 4.17822 0.501794 2.46359 0 0.532124C0.698127 0.295623 1.43977 0.177374 2.22511 0.177374C3.01044 0.177374 3.64312 0.384311 4.12299 0.798187C4.62479 1.21206 4.8756 1.76385 4.8756 2.45369C4.8756 2.80844 4.79936 3.67566 4.64655 5.0552C5.4538 3.75444 6.47899 2.63106 7.72243 1.68506C8.96587 0.719401 10.2093 0.236498 11.4527 0.236498C13.6561 0.236498 14.7577 1.30075 14.7577 3.42925C14.7577 3.96138 14.725 4.55263 14.6595 5.20301C15.4668 3.82347 16.5029 2.61141 17.7681 1.56681C19.0552 0.52222 20.3314 0 21.5966 0C23.8 0 24.9016 1.06425 24.9016 3.19275Z" fill="white"/>
</svg>
